<svg width="50" height="47" viewBox="0 0 50 47" fill="none" xmlns="http://www.w3.org/2000/svg">
<path d="M35.8599 2.15625H14.1088C11.8347 2.15625 9.98438 4.00653 9.98438 6.2807V19.5919C9.98438 21.8617 11.8266 23.7087 14.0942 23.7164V29.7572L22.7747 23.7169H35.8599C38.1341 23.7169 39.9844 21.8666 39.9844 19.5919V6.2807C39.9844 4.00653 38.1341 2.15625 35.8599 2.15625ZM31.9548 17.6255H18.0139V15.8677H31.9548V17.6255ZM31.9548 13.8755H18.0139V12.1177H31.9548V13.8755ZM31.9548 10.1255H18.0139V8.36774H31.9548V10.1255Z" fill="white"/>
<path d="M0.355469 37.4336H3.02148C4.23633 37.4336 5.11719 37.6074 5.66406 37.9551C6.21484 38.2988 6.49023 38.8477 6.49023 39.6016C6.49023 40.1133 6.36914 40.5332 6.12695 40.8613C5.88867 41.1895 5.57031 41.3867 5.17188 41.4531V41.5117C5.71484 41.6328 6.10547 41.8594 6.34375 42.1914C6.58594 42.5234 6.70703 42.9648 6.70703 43.5156C6.70703 44.2969 6.42383 44.9062 5.85742 45.3438C5.29492 45.7812 4.5293 46 3.56055 46H0.355469V37.4336ZM2.17188 40.8262H3.22656C3.71875 40.8262 4.07422 40.75 4.29297 40.5977C4.51562 40.4453 4.62695 40.1934 4.62695 39.8418C4.62695 39.5137 4.50586 39.2793 4.26367 39.1387C4.02539 38.9941 3.64648 38.9219 3.12695 38.9219H2.17188V40.8262ZM2.17188 42.2676V44.5H3.35547C3.85547 44.5 4.22461 44.4043 4.46289 44.2129C4.70117 44.0215 4.82031 43.7285 4.82031 43.334C4.82031 42.623 4.3125 42.2676 3.29688 42.2676H2.17188Z" fill="white"/>
<path d="M12.4375 46L12.0918 45.1094H12.0449C11.7441 45.4883 11.4336 45.752 11.1133 45.9004C10.7969 46.0449 10.3828 46.1172 9.87109 46.1172C9.24219 46.1172 8.74609 45.9375 8.38281 45.5781C8.02344 45.2188 7.84375 44.707 7.84375 44.043C7.84375 43.3477 8.08594 42.8359 8.57031 42.5078C9.05859 42.1758 9.79297 41.9922 10.7734 41.957L11.9102 41.9219V41.6348C11.9102 40.9707 11.5703 40.6387 10.8906 40.6387C10.3672 40.6387 9.75195 40.7969 9.04492 41.1133L8.45312 39.9062C9.20703 39.5117 10.043 39.3145 10.9609 39.3145C11.8398 39.3145 12.5137 39.5059 12.9824 39.8887C13.4512 40.2715 13.6855 40.8535 13.6855 41.6348V46H12.4375ZM11.9102 42.9648L11.2188 42.9883C10.6992 43.0039 10.3125 43.0977 10.0586 43.2695C9.80469 43.4414 9.67773 43.7031 9.67773 44.0547C9.67773 44.5586 9.9668 44.8105 10.5449 44.8105C10.959 44.8105 11.2891 44.6914 11.5352 44.4531C11.7852 44.2148 11.9102 43.8984 11.9102 43.5039V42.9648Z" fill="white"/>
<path d="M21.5781 46H19.791V42.1738C19.791 41.7012 19.707 41.3477 19.5391 41.1133C19.3711 40.875 19.1035 40.7559 18.7363 40.7559C18.2363 40.7559 17.875 40.9238 17.6523 41.2598C17.4297 41.5918 17.3184 42.1445 17.3184 42.918V46H15.5312V39.4492H16.8965L17.1367 40.2871H17.2363C17.4355 39.9707 17.709 39.7324 18.0566 39.5723C18.4082 39.4082 18.8066 39.3262 19.252 39.3262C20.0137 39.3262 20.5918 39.5332 20.9863 39.9473C21.3809 40.3574 21.5781 40.9512 21.5781 41.7285V46Z" fill="white"/>
<path d="M26.1777 44.6934C26.4902 44.6934 26.8652 44.625 27.3027 44.4883V45.8184C26.8574 46.0176 26.3105 46.1172 25.6621 46.1172C24.9473 46.1172 24.4258 45.9375 24.0977 45.5781C23.7734 45.2148 23.6113 44.6719 23.6113 43.9492V40.791H22.7559V40.0352L23.7402 39.4375L24.2559 38.0547H25.3984V39.4492H27.2324V40.791H25.3984V43.9492C25.3984 44.2031 25.4688 44.3906 25.6094 44.5117C25.7539 44.6328 25.9434 44.6934 26.1777 44.6934Z" fill="white"/>
<path d="M33.2734 46L33.0332 45.1621H32.9395C32.748 45.4668 32.4766 45.7031 32.125 45.8711C31.7734 46.0352 31.373 46.1172 30.9238 46.1172C30.1543 46.1172 29.5742 45.9121 29.1836 45.502C28.793 45.0879 28.5977 44.4941 28.5977 43.7207V39.4492H30.3848V43.2754C30.3848 43.748 30.4688 44.1035 30.6367 44.3418C30.8047 44.5762 31.0723 44.6934 31.4395 44.6934C31.9395 44.6934 32.3008 44.5273 32.5234 44.1953C32.7461 43.8594 32.8574 43.3047 32.8574 42.5312V39.4492H34.6445V46H33.2734Z" fill="white"/>
<path d="M40.6797 46L40.334 45.1094H40.2871C39.9863 45.4883 39.6758 45.752 39.3555 45.9004C39.0391 46.0449 38.625 46.1172 38.1133 46.1172C37.4844 46.1172 36.9883 45.9375 36.625 45.5781C36.2656 45.2188 36.0859 44.707 36.0859 44.043C36.0859 43.3477 36.3281 42.8359 36.8125 42.5078C37.3008 42.1758 38.0352 41.9922 39.0156 41.957L40.1523 41.9219V41.6348C40.1523 40.9707 39.8125 40.6387 39.1328 40.6387C38.6094 40.6387 37.9941 40.7969 37.2871 41.1133L36.6953 39.9062C37.4492 39.5117 38.2852 39.3145 39.2031 39.3145C40.082 39.3145 40.7559 39.5059 41.2246 39.8887C41.6934 40.2715 41.9277 40.8535 41.9277 41.6348V46H40.6797ZM40.1523 42.9648L39.4609 42.9883C38.9414 43.0039 38.5547 43.0977 38.3008 43.2695C38.0469 43.4414 37.9199 43.7031 37.9199 44.0547C37.9199 44.5586 38.209 44.8105 38.7871 44.8105C39.2012 44.8105 39.5312 44.6914 39.7773 44.4531C40.0273 44.2148 40.1523 43.8984 40.1523 43.5039V42.9648Z" fill="white"/>
<path d="M49.8203 46H48.0332V42.1738C48.0332 41.7012 47.9492 41.3477 47.7812 41.1133C47.6133 40.875 47.3457 40.7559 46.9785 40.7559C46.4785 40.7559 46.1172 40.9238 45.8945 41.2598C45.6719 41.5918 45.5605 42.1445 45.5605 42.918V46H43.7734V39.4492H45.1387L45.3789 40.2871H45.4785C45.6777 39.9707 45.9512 39.7324 46.2988 39.5723C46.6504 39.4082 47.0488 39.3262 47.4941 39.3262C48.2559 39.3262 48.834 39.5332 49.2285 39.9473C49.623 40.3574 49.8203 40.9512 49.8203 41.7285V46Z" fill="white"/>
</svg>
