<svg width="60" height="49" viewBox="0 0 60 49" fill="none" xmlns="http://www.w3.org/2000/svg">
<path d="M40.8599 2.15625H19.1088C16.8347 2.15625 14.9844 4.00653 14.9844 6.2807V19.5919C14.9844 21.8617 16.8266 23.7087 19.0942 23.7164V29.7572L27.7747 23.7169H40.8599C43.1341 23.7169 44.9844 21.8666 44.9844 19.5919V6.2807C44.9844 4.00653 43.1341 2.15625 40.8599 2.15625ZM36.9548 17.6255H23.0139V15.8677H36.9548V17.6255ZM36.9548 13.8755H23.0139V12.1177H36.9548V13.8755ZM36.9548 10.1255H23.0139V8.36774H36.9548V10.1255Z" fill="white"/>
<path d="M7.14371 46.1172H5.30113V42.4199H1.84854V46.1172H0V37.5508H1.84854V40.9082H5.30113V37.5508H7.14371V46.1172Z" fill="white"/>
<path d="M11.9678 40.7148C11.5822 40.7148 11.2801 40.8359 11.0614 41.0781C10.8428 41.3164 10.7176 41.6562 10.6857 42.0977H13.2379C13.23 41.6562 13.1127 41.3164 12.8861 41.0781C12.6595 40.8359 12.3534 40.7148 11.9678 40.7148ZM12.2242 46.2344C11.1509 46.2344 10.3121 45.9434 9.70781 45.3613C9.10356 44.7793 8.80143 43.9551 8.80143 42.8887C8.80143 41.791 9.07971 40.9434 9.63626 40.3457C10.1968 39.7441 10.97 39.4434 11.9559 39.4434C12.898 39.4434 13.6315 39.707 14.1562 40.2344C14.681 40.7617 14.9434 41.4902 14.9434 42.4199V43.2871H10.644C10.6639 43.7949 10.8169 44.1914 11.1032 44.4766C11.3894 44.7617 11.7909 44.9043 12.3077 44.9043C12.7092 44.9043 13.0888 44.8633 13.4466 44.7812C13.8044 44.6992 14.1781 44.5684 14.5677 44.3887V45.7715C14.2497 45.9277 13.9098 46.043 13.548 46.1172C13.1862 46.1953 12.745 46.2344 12.2242 46.2344Z" fill="white"/>
<path d="M18.2409 46.1172H16.4222V37H18.2409V46.1172Z" fill="white"/>
<path d="M23.8163 46.2344C23.0332 46.2344 22.419 45.9551 21.9738 45.3965H21.8784C21.942 45.9434 21.9738 46.2598 21.9738 46.3457V49H20.155V39.5664H21.6339L21.8903 40.416H21.9738C22.3991 39.7676 23.0292 39.4434 23.864 39.4434C24.6512 39.4434 25.2673 39.7422 25.7126 40.3398C26.1578 40.9375 26.3804 41.7676 26.3804 42.8301C26.3804 43.5293 26.2751 44.1367 26.0644 44.6523C25.8577 45.168 25.5615 45.5605 25.1759 45.8301C24.7903 46.0996 24.3371 46.2344 23.8163 46.2344ZM23.2797 40.873C22.8305 40.873 22.5025 41.0098 22.2958 41.2832C22.089 41.5527 21.9817 42 21.9738 42.625V42.8184C21.9738 43.5215 22.0791 44.0254 22.2898 44.3301C22.5045 44.6348 22.8424 44.7871 23.3035 44.7871C24.1185 44.7871 24.5259 44.127 24.5259 42.8066C24.5259 42.1621 24.4246 41.6797 24.2218 41.3594C24.0231 41.0352 23.709 40.873 23.2797 40.873Z" fill="white"/>
<path d="M38.4317 41.752C38.4317 43.1621 38.0223 44.2422 37.2033 44.9922C36.3884 45.7422 35.2097 46.1172 33.6673 46.1172H31.1986V37.5508H33.9356C35.3588 37.5508 36.4639 37.9199 37.251 38.6582C38.0382 39.3965 38.4317 40.4277 38.4317 41.752ZM36.5116 41.7988C36.5116 39.959 35.6848 39.0391 34.031 39.0391H33.0471V44.6172H33.8402C35.6211 44.6172 36.5116 43.6777 36.5116 41.7988Z" fill="white"/>
<path d="M42.8563 40.7148C42.4707 40.7148 42.1686 40.8359 41.9499 41.0781C41.7313 41.3164 41.606 41.6562 41.5742 42.0977H44.1264C44.1185 41.6562 44.0012 41.3164 43.7746 41.0781C43.548 40.8359 43.2419 40.7148 42.8563 40.7148ZM43.1127 46.2344C42.0394 46.2344 41.2006 45.9434 40.5963 45.3613C39.9921 44.7793 39.6899 43.9551 39.6899 42.8887C39.6899 41.791 39.9682 40.9434 40.5247 40.3457C41.0853 39.7441 41.8585 39.4434 42.8444 39.4434C43.7865 39.4434 44.52 39.707 45.0447 40.2344C45.5695 40.7617 45.8318 41.4902 45.8318 42.4199V43.2871H41.5325C41.5524 43.7949 41.7054 44.1914 41.9917 44.4766C42.2779 44.7617 42.6794 44.9043 43.1962 44.9043C43.5977 44.9043 43.9773 44.8633 44.3351 44.7812C44.6929 44.6992 45.0666 44.5684 45.4562 44.3887V45.7715C45.1381 45.9277 44.7983 46.043 44.4365 46.1172C44.0747 46.1953 43.6335 46.2344 43.1127 46.2344Z" fill="white"/>
<path d="M51.9618 44.1719C51.9618 44.8438 51.7233 45.3555 51.2463 45.707C50.7732 46.0586 50.0636 46.2344 49.1175 46.2344C48.6325 46.2344 48.219 46.2012 47.8772 46.1348C47.5353 46.0723 47.2153 45.9785 46.9171 45.8535V44.377C47.255 44.5332 47.6347 44.6641 48.0561 44.7695C48.4814 44.875 48.8551 44.9277 49.1771 44.9277C49.837 44.9277 50.167 44.7402 50.167 44.3652C50.167 44.2246 50.1232 44.1113 50.0358 44.0254C49.9483 43.9355 49.7973 43.8359 49.5826 43.7266C49.3679 43.6133 49.0817 43.4824 48.7239 43.334C48.2111 43.123 47.8334 42.9277 47.5909 42.748C47.3524 42.5684 47.1775 42.3633 47.0662 42.1328C46.9589 41.8984 46.9052 41.6113 46.9052 41.2715C46.9052 40.6895 47.1338 40.2402 47.5909 39.9238C48.0521 39.6035 48.704 39.4434 49.5468 39.4434C50.3498 39.4434 51.131 39.6152 51.8903 39.959L51.3417 41.248C51.0078 41.1074 50.6957 40.9922 50.4055 40.9023C50.1153 40.8125 49.8191 40.7676 49.517 40.7676C48.9803 40.7676 48.712 40.9102 48.712 41.1953C48.712 41.3555 48.7975 41.4941 48.9684 41.6113C49.1433 41.7285 49.523 41.9023 50.1073 42.1328C50.6281 42.3398 51.0097 42.5332 51.2522 42.7129C51.4947 42.8926 51.6736 43.0996 51.7889 43.334C51.9042 43.5684 51.9618 43.8477 51.9618 44.1719Z" fill="white"/>
<path d="M55.1282 42.5547L55.9213 41.5586L57.7877 39.5664H59.839L57.1914 42.4082L60 46.1172H57.901L55.9809 43.4629L55.1998 44.0781V46.1172H53.381V37H55.1998V41.0664L55.1044 42.5547H55.1282Z" fill="white"/>
</svg>
