<svg width="24" height="24" viewBox="0 0 24 24" fill="none" xmlns="http://www.w3.org/2000/svg">
<g clip-path="url(#clip0)">
<path d="M12.3032 0.00500223C7.42931 -0.159251 3.42676 3.74278 3.42676 8.57959C3.42676 14.0688 8.69455 18.0525 11.6471 23.7816C11.797 24.0725 12.2158 24.0729 12.3662 23.7821C15.0372 18.627 19.6024 15.1703 20.4484 10.204C21.3244 5.06484 17.5134 0.180657 12.3032 0.00500223ZM12.0062 13.0736C9.52432 13.0736 7.51225 11.0615 7.51225 8.57959C7.51225 6.0977 9.52436 4.08559 12.0062 4.08559C14.4882 4.08559 16.5003 6.0977 16.5003 8.57959C16.5003 11.0615 14.4882 13.0736 12.0062 13.0736Z" fill="#282828"/>
</g>
<defs>
<clipPath id="clip0">
<rect width="24" height="24" fill="white"/>
</clipPath>
</defs>
</svg>
